<svg xmlns="http://www.w3.org/2000/svg" xmlns:xlink="http://www.w3.org/1999/xlink" width="405" zoomAndPan="magnify" viewBox="0 0 303.75 89.999999" height="120" preserveAspectRatio="xMidYMid meet" version="1.0"><defs><g/><clipPath id="7f8decce63"><path d="M 5 29 L 54.703125 29 L 54.703125 77 L 5 77 Z M 5 29 " clip-rule="nonzero"/></clipPath></defs><path fill="#004889" d="M 19.390625 26.839844 C 20.304688 26.839844 21.042969 26.097656 21.042969 25.1875 L 21.042969 21.992188 C 21.042969 17.855469 24.410156 14.488281 28.558594 14.488281 C 32.707031 14.488281 36.074219 17.855469 36.074219 21.992188 L 36.074219 25.1875 C 36.074219 26.097656 36.816406 26.839844 37.726562 26.839844 C 38.636719 26.839844 39.378906 26.097656 39.378906 25.1875 L 39.378906 22.441406 C 39.378906 16.667969 35.046875 11.59375 29.273438 11.210938 C 23 10.800781 17.742188 15.796875 17.742188 21.992188 L 17.742188 25.1875 C 17.742188 26.097656 18.480469 26.839844 19.390625 26.839844 Z M 19.390625 26.839844 " fill-opacity="1" fill-rule="nonzero"/><g clip-path="url(#7f8decce63)"><path fill="#f5af1c" d="M 54.121094 69.769531 L 50.488281 34.433594 C 50.195312 31.621094 47.832031 29.492188 45.003906 29.492188 L 12.113281 29.492188 C 9.285156 29.492188 6.921875 31.632812 6.632812 34.433594 L 5.71875 43.230469 C 5.113281 49.136719 10.726562 53.746094 16.394531 52.015625 L 19.472656 51.078125 C 22.972656 50.007812 26.882812 51.777344 28.253906 55.660156 C 28.730469 57.007812 28.664062 58.488281 28.242188 59.863281 L 26.882812 64.300781 C 25.007812 70.429688 29.589844 76.625 35.996094 76.625 L 47.9375 76.625 C 51.625 76.613281 54.503906 73.429688 54.121094 69.769531 Z M 54.121094 69.769531 " fill-opacity="1" fill-rule="nonzero"/></g><path fill="#004889" d="M 20.632812 54.855469 L 2.839844 60.285156 C 0.25 61.078125 0.0664062 64.671875 2.5625 65.726562 L 6.804688 67.511719 C 9.046875 68.460938 10.84375 70.246094 11.796875 72.503906 L 13.578125 76.746094 C 14.636719 79.242188 18.230469 79.054688 19.023438 76.46875 L 24.449219 58.671875 C 25.175781 56.335938 22.984375 54.144531 20.632812 54.855469 Z M 20.632812 54.855469 " fill-opacity="1" fill-rule="nonzero"/><g fill="#ef8121" fill-opacity="0.4"><g transform="translate(68.444386, 58.478895)"><g><path d="M 22.46875 4.796875 L 18.859375 -0.046875 C 17.796875 0.171875 16.757812 0.28125 15.75 0.28125 C 13.113281 0.28125 10.695312 -0.328125 8.5 -1.546875 C 6.300781 -2.773438 4.550781 -4.488281 3.25 -6.6875 C 1.957031 -8.882812 1.3125 -11.359375 1.3125 -14.109375 C 1.3125 -16.847656 1.957031 -19.3125 3.25 -21.5 C 4.550781 -23.6875 6.300781 -25.390625 8.5 -26.609375 C 10.695312 -27.835938 13.113281 -28.453125 15.75 -28.453125 C 18.382812 -28.453125 20.800781 -27.835938 23 -26.609375 C 25.195312 -25.390625 26.925781 -23.6875 28.1875 -21.5 C 29.457031 -19.3125 30.09375 -16.847656 30.09375 -14.109375 C 30.09375 -11.710938 29.601562 -9.519531 28.625 -7.53125 C 27.65625 -5.550781 26.304688 -3.90625 24.578125 -2.59375 L 30.734375 4.796875 Z M 8.3125 -14.109375 C 8.3125 -11.628906 8.984375 -9.648438 10.328125 -8.171875 C 11.671875 -6.691406 13.476562 -5.953125 15.75 -5.953125 C 17.988281 -5.953125 19.78125 -6.695312 21.125 -8.1875 C 22.46875 -9.6875 23.140625 -11.660156 23.140625 -14.109375 C 23.140625 -16.585938 22.46875 -18.566406 21.125 -20.046875 C 19.78125 -21.523438 17.988281 -22.265625 15.75 -22.265625 C 13.476562 -22.265625 11.671875 -21.53125 10.328125 -20.0625 C 8.984375 -18.59375 8.3125 -16.609375 8.3125 -14.109375 Z M 8.3125 -14.109375 "/></g></g></g><g fill="#ef8121" fill-opacity="0.4"><g transform="translate(99.935334, 58.478895)"><g><path d="M 24.5 -22.296875 L 24.5 0 L 17.671875 0 L 17.671875 -3.03125 C 16.972656 -2.050781 16.03125 -1.257812 14.84375 -0.65625 C 13.65625 -0.0625 12.34375 0.234375 10.90625 0.234375 C 9.207031 0.234375 7.703125 -0.140625 6.390625 -0.890625 C 5.085938 -1.648438 4.078125 -2.75 3.359375 -4.1875 C 2.640625 -5.632812 2.28125 -7.328125 2.28125 -9.265625 L 2.28125 -22.296875 L 9.078125 -22.296875 L 9.078125 -10.1875 C 9.078125 -8.695312 9.460938 -7.535156 10.234375 -6.703125 C 11.003906 -5.878906 12.039062 -5.46875 13.34375 -5.46875 C 14.675781 -5.46875 15.726562 -5.878906 16.5 -6.703125 C 17.28125 -7.535156 17.671875 -8.695312 17.671875 -10.1875 L 17.671875 -22.296875 Z M 24.5 -22.296875 "/></g></g></g><g fill="#ef8121" fill-opacity="0.4"><g transform="translate(126.870489, 58.478895)"><g><path d="M 5.921875 -24.625 C 4.710938 -24.625 3.726562 -24.972656 2.96875 -25.671875 C 2.21875 -26.378906 1.84375 -27.253906 1.84375 -28.296875 C 1.84375 -29.359375 2.21875 -30.242188 2.96875 -30.953125 C 3.726562 -31.660156 4.710938 -32.015625 5.921875 -32.015625 C 7.085938 -32.015625 8.050781 -31.660156 8.8125 -30.953125 C 9.570312 -30.242188 9.953125 -29.359375 9.953125 -28.296875 C 9.953125 -27.253906 9.570312 -26.378906 8.8125 -25.671875 C 8.050781 -24.972656 7.085938 -24.625 5.921875 -24.625 Z M 9.3125 -22.296875 L 9.3125 0 L 2.484375 0 L 2.484375 -22.296875 Z M 9.3125 -22.296875 "/></g></g></g><g fill="#ef8121" fill-opacity="0.4"><g transform="translate(138.65961, 58.478895)"><g><path d="M 1.125 -11.15625 C 1.125 -13.46875 1.59375 -15.488281 2.53125 -17.21875 C 3.476562 -18.957031 4.796875 -20.289062 6.484375 -21.21875 C 8.179688 -22.15625 10.125 -22.625 12.3125 -22.625 C 15.101562 -22.625 17.4375 -21.890625 19.3125 -20.421875 C 21.195312 -18.953125 22.429688 -16.890625 23.015625 -14.234375 L 15.75 -14.234375 C 15.132812 -15.929688 13.945312 -16.78125 12.1875 -16.78125 C 10.9375 -16.78125 9.9375 -16.296875 9.1875 -15.328125 C 8.445312 -14.359375 8.078125 -12.96875 8.078125 -11.15625 C 8.078125 -9.34375 8.445312 -7.945312 9.1875 -6.96875 C 9.9375 -6 10.9375 -5.515625 12.1875 -5.515625 C 13.945312 -5.515625 15.132812 -6.367188 15.75 -8.078125 L 23.015625 -8.078125 C 22.429688 -5.460938 21.191406 -3.410156 19.296875 -1.921875 C 17.410156 -0.429688 15.082031 0.3125 12.3125 0.3125 C 10.125 0.3125 8.179688 -0.148438 6.484375 -1.078125 C 4.796875 -2.015625 3.476562 -3.347656 2.53125 -5.078125 C 1.59375 -6.804688 1.125 -8.832031 1.125 -11.15625 Z M 1.125 -11.15625 "/></g></g></g><g fill="#ef8121" fill-opacity="0.4"><g transform="translate(162.837303, 58.478895)"><g><path d="M 16.109375 0 L 9.3125 -9.359375 L 9.3125 0 L 2.484375 0 L 2.484375 -29.578125 L 9.3125 -29.578125 L 9.3125 -13.234375 L 16.0625 -22.296875 L 24.5 -22.296875 L 15.234375 -11.109375 L 24.578125 0 Z M 16.109375 0 "/></g></g></g><g fill="#f5af1c" fill-opacity="1"><g transform="translate(68.444386, 58.478895)"><g><path d="M 22.46875 4.796875 L 18.859375 -0.046875 C 17.796875 0.171875 16.757812 0.28125 15.75 0.28125 C 13.113281 0.28125 10.695312 -0.328125 8.5 -1.546875 C 6.300781 -2.773438 4.550781 -4.488281 3.25 -6.6875 C 1.957031 -8.882812 1.3125 -11.359375 1.3125 -14.109375 C 1.3125 -16.847656 1.957031 -19.3125 3.25 -21.5 C 4.550781 -23.6875 6.300781 -25.390625 8.5 -26.609375 C 10.695312 -27.835938 13.113281 -28.453125 15.75 -28.453125 C 18.382812 -28.453125 20.800781 -27.835938 23 -26.609375 C 25.195312 -25.390625 26.925781 -23.6875 28.1875 -21.5 C 29.457031 -19.3125 30.09375 -16.847656 30.09375 -14.109375 C 30.09375 -11.710938 29.601562 -9.519531 28.625 -7.53125 C 27.65625 -5.550781 26.304688 -3.90625 24.578125 -2.59375 L 30.734375 4.796875 Z M 8.3125 -14.109375 C 8.3125 -11.628906 8.984375 -9.648438 10.328125 -8.171875 C 11.671875 -6.691406 13.476562 -5.953125 15.75 -5.953125 C 17.988281 -5.953125 19.78125 -6.695312 21.125 -8.1875 C 22.46875 -9.6875 23.140625 -11.660156 23.140625 -14.109375 C 23.140625 -16.585938 22.46875 -18.566406 21.125 -20.046875 C 19.78125 -21.523438 17.988281 -22.265625 15.75 -22.265625 C 13.476562 -22.265625 11.671875 -21.53125 10.328125 -20.0625 C 8.984375 -18.59375 8.3125 -16.609375 8.3125 -14.109375 Z M 8.3125 -14.109375 "/></g></g></g><g fill="#f5af1c" fill-opacity="1"><g transform="translate(99.935334, 58.478895)"><g><path d="M 24.5 -22.296875 L 24.5 0 L 17.671875 0 L 17.671875 -3.03125 C 16.972656 -2.050781 16.03125 -1.257812 14.84375 -0.65625 C 13.65625 -0.0625 12.34375 0.234375 10.90625 0.234375 C 9.207031 0.234375 7.703125 -0.140625 6.390625 -0.890625 C 5.085938 -1.648438 4.078125 -2.75 3.359375 -4.1875 C 2.640625 -5.632812 2.28125 -7.328125 2.28125 -9.265625 L 2.28125 -22.296875 L 9.078125 -22.296875 L 9.078125 -10.1875 C 9.078125 -8.695312 9.460938 -7.535156 10.234375 -6.703125 C 11.003906 -5.878906 12.039062 -5.46875 13.34375 -5.46875 C 14.675781 -5.46875 15.726562 -5.878906 16.5 -6.703125 C 17.28125 -7.535156 17.671875 -8.695312 17.671875 -10.1875 L 17.671875 -22.296875 Z M 24.5 -22.296875 "/></g></g></g><g fill="#f5af1c" fill-opacity="1"><g transform="translate(126.870489, 58.478895)"><g><path d="M 5.921875 -24.625 C 4.710938 -24.625 3.726562 -24.972656 2.96875 -25.671875 C 2.21875 -26.378906 1.84375 -27.253906 1.84375 -28.296875 C 1.84375 -29.359375 2.21875 -30.242188 2.96875 -30.953125 C 3.726562 -31.660156 4.710938 -32.015625 5.921875 -32.015625 C 7.085938 -32.015625 8.050781 -31.660156 8.8125 -30.953125 C 9.570312 -30.242188 9.953125 -29.359375 9.953125 -28.296875 C 9.953125 -27.253906 9.570312 -26.378906 8.8125 -25.671875 C 8.050781 -24.972656 7.085938 -24.625 5.921875 -24.625 Z M 9.3125 -22.296875 L 9.3125 0 L 2.484375 0 L 2.484375 -22.296875 Z M 9.3125 -22.296875 "/></g></g></g><g fill="#f5af1c" fill-opacity="1"><g transform="translate(138.65961, 58.478895)"><g><path d="M 1.125 -11.15625 C 1.125 -13.46875 1.59375 -15.488281 2.53125 -17.21875 C 3.476562 -18.957031 4.796875 -20.289062 6.484375 -21.21875 C 8.179688 -22.15625 10.125 -22.625 12.3125 -22.625 C 15.101562 -22.625 17.4375 -21.890625 19.3125 -20.421875 C 21.195312 -18.953125 22.429688 -16.890625 23.015625 -14.234375 L 15.75 -14.234375 C 15.132812 -15.929688 13.945312 -16.78125 12.1875 -16.78125 C 10.9375 -16.78125 9.9375 -16.296875 9.1875 -15.328125 C 8.445312 -14.359375 8.078125 -12.96875 8.078125 -11.15625 C 8.078125 -9.34375 8.445312 -7.945312 9.1875 -6.96875 C 9.9375 -6 10.9375 -5.515625 12.1875 -5.515625 C 13.945312 -5.515625 15.132812 -6.367188 15.75 -8.078125 L 23.015625 -8.078125 C 22.429688 -5.460938 21.191406 -3.410156 19.296875 -1.921875 C 17.410156 -0.429688 15.082031 0.3125 12.3125 0.3125 C 10.125 0.3125 8.179688 -0.148438 6.484375 -1.078125 C 4.796875 -2.015625 3.476562 -3.347656 2.53125 -5.078125 C 1.59375 -6.804688 1.125 -8.832031 1.125 -11.15625 Z M 1.125 -11.15625 "/></g></g></g><g fill="#f5af1c" fill-opacity="1"><g transform="translate(162.837303, 58.478895)"><g><path d="M 16.109375 0 L 9.3125 -9.359375 L 9.3125 0 L 2.484375 0 L 2.484375 -29.578125 L 9.3125 -29.578125 L 9.3125 -13.234375 L 16.0625 -22.296875 L 24.5 -22.296875 L 15.234375 -11.109375 L 24.578125 0 Z M 16.109375 0 "/></g></g></g><g fill="#004889" fill-opacity="1"><g transform="translate(189.791363, 58.478895)"><g><path d="M 1.3125 -14.0625 C 1.3125 -16.832031 1.910156 -19.300781 3.109375 -21.46875 C 4.316406 -23.644531 5.988281 -25.335938 8.125 -26.546875 C 10.269531 -27.765625 12.703125 -28.375 15.421875 -28.375 C 18.753906 -28.375 21.601562 -27.492188 23.96875 -25.734375 C 26.34375 -23.984375 27.929688 -21.585938 28.734375 -18.546875 L 21.21875 -18.546875 C 20.664062 -19.710938 19.875 -20.601562 18.84375 -21.21875 C 17.820312 -21.832031 16.65625 -22.140625 15.34375 -22.140625 C 13.238281 -22.140625 11.535156 -21.40625 10.234375 -19.9375 C 8.929688 -18.476562 8.28125 -16.519531 8.28125 -14.0625 C 8.28125 -11.613281 8.929688 -9.65625 10.234375 -8.1875 C 11.535156 -6.726562 13.238281 -6 15.34375 -6 C 16.65625 -6 17.820312 -6.300781 18.84375 -6.90625 C 19.875 -7.519531 20.664062 -8.414062 21.21875 -9.59375 L 28.734375 -9.59375 C 27.929688 -6.550781 26.34375 -4.15625 23.96875 -2.40625 C 21.601562 -0.664062 18.753906 0.203125 15.421875 0.203125 C 12.703125 0.203125 10.269531 -0.398438 8.125 -1.609375 C 5.988281 -2.828125 4.316406 -4.515625 3.109375 -6.671875 C 1.910156 -8.828125 1.3125 -11.289062 1.3125 -14.0625 Z M 1.3125 -14.0625 "/></g></g></g><g fill="#004889" fill-opacity="1"><g transform="translate(220.243276, 58.478895)"><g><path d="M 1.125 -11.1875 C 1.125 -13.476562 1.554688 -15.488281 2.421875 -17.21875 C 3.285156 -18.957031 4.460938 -20.289062 5.953125 -21.21875 C 7.441406 -22.15625 9.109375 -22.625 10.953125 -22.625 C 12.523438 -22.625 13.898438 -22.300781 15.078125 -21.65625 C 16.265625 -21.019531 17.179688 -20.179688 17.828125 -19.140625 L 17.828125 -22.296875 L 24.65625 -22.296875 L 24.65625 0 L 17.828125 0 L 17.828125 -3.15625 C 17.160156 -2.113281 16.234375 -1.273438 15.046875 -0.640625 C 13.859375 -0.00390625 12.476562 0.3125 10.90625 0.3125 C 9.09375 0.3125 7.441406 -0.15625 5.953125 -1.09375 C 4.460938 -2.039062 3.285156 -3.382812 2.421875 -5.125 C 1.554688 -6.875 1.125 -8.894531 1.125 -11.1875 Z M 17.828125 -11.15625 C 17.828125 -12.851562 17.351562 -14.195312 16.40625 -15.1875 C 15.457031 -16.175781 14.304688 -16.671875 12.953125 -16.671875 C 11.585938 -16.671875 10.429688 -16.179688 9.484375 -15.203125 C 8.546875 -14.234375 8.078125 -12.894531 8.078125 -11.1875 C 8.078125 -9.488281 8.546875 -8.140625 9.484375 -7.140625 C 10.429688 -6.140625 11.585938 -5.640625 12.953125 -5.640625 C 14.304688 -5.640625 15.457031 -6.128906 16.40625 -7.109375 C 17.351562 -8.097656 17.828125 -9.445312 17.828125 -11.15625 Z M 17.828125 -11.15625 "/></g></g></g><g fill="#004889" fill-opacity="1"><g transform="translate(247.378241, 58.478895)"><g><path d="M 9.3125 -18.578125 C 10.113281 -19.804688 11.113281 -20.773438 12.3125 -21.484375 C 13.507812 -22.191406 14.84375 -22.546875 16.3125 -22.546875 L 16.3125 -15.3125 L 14.421875 -15.3125 C 12.722656 -15.3125 11.445312 -14.941406 10.59375 -14.203125 C 9.738281 -13.472656 9.3125 -12.191406 9.3125 -10.359375 L 9.3125 0 L 2.484375 0 L 2.484375 -22.296875 L 9.3125 -22.296875 Z M 9.3125 -18.578125 "/></g></g></g><g fill="#004889" fill-opacity="1"><g transform="translate(264.482464, 58.478895)"><g><path d="M 14.90625 -5.796875 L 14.90625 0 L 11.4375 0 C 8.957031 0 7.023438 -0.601562 5.640625 -1.8125 C 4.253906 -3.03125 3.5625 -5.007812 3.5625 -7.75 L 3.5625 -16.625 L 0.84375 -16.625 L 0.84375 -22.296875 L 3.5625 -22.296875 L 3.5625 -27.734375 L 10.390625 -27.734375 L 10.390625 -22.296875 L 14.875 -22.296875 L 14.875 -16.625 L 10.390625 -16.625 L 10.390625 -7.671875 C 10.390625 -7.003906 10.546875 -6.523438 10.859375 -6.234375 C 11.179688 -5.941406 11.71875 -5.796875 12.46875 -5.796875 Z M 14.90625 -5.796875 "/></g></g></g></svg>